<svg width="86" height="89" viewBox="0 0 86 89" fill="currentColor" xmlns="http://www.w3.org/2000/svg">
<path fill-rule="evenodd" clip-rule="evenodd" d="M42.984 87.5782L27.484 78.5782L32.984 75.5782V13.5782L27.484 9.57819L42.984 0.578186L58.484 9.57818L52.984 13.5782V41.5782L49.484 44.5782L52.984 48.0782V75.5782L58.484 78.5782L42.984 87.5782ZM39.984 78.0782L42.984 79.5782L45.984 78.0782V48.0782H39.984V78.0782ZM39.984 11.0782L42.984 9.57818L45.984 11.0782V41.5782H39.984V11.0782Z"/>
<path d="M25.984 77.5782V69.5782L12.984 62.0782V18.0782L0.984009 25.0782L5.98401 29.0782V60.0782L0.984009 63.0782L25.984 77.5782Z"/>
<path d="M59.984 77.5782V10.5782L84.984 25.0782L79.984 29.0782L66.984 23.0782V37.0782H79.984V44.0782H66.984V66.0782L72.984 70.0782L59.984 77.5782Z"/>
<path fill-rule="evenodd" clip-rule="evenodd" d="M42.984 87.5782L27.484 78.5782L32.984 75.5782V13.5782L27.484 9.57819L42.984 0.578186L58.484 9.57818L52.984 13.5782V41.5782L49.484 44.5782L52.984 48.0782V75.5782L58.484 78.5782L42.984 87.5782ZM39.984 78.0782L42.984 79.5782L45.984 78.0782V48.0782H39.984V78.0782ZM39.984 11.0782L42.984 9.57818L45.984 11.0782V41.5782H39.984V11.0782Z" stroke="black"/>
<path d="M25.984 77.5782V69.5782L12.984 62.0782V18.0782L0.984009 25.0782L5.98401 29.0782V60.0782L0.984009 63.0782L25.984 77.5782Z" stroke="black"/>
<path d="M59.984 77.5782V10.5782L84.984 25.0782L79.984 29.0782L66.984 23.0782V37.0782H79.984V44.0782H66.984V66.0782L72.984 70.0782L59.984 77.5782Z" stroke="black"/>
</svg>
